<svg width="73" height="45" viewBox="0 0 73 45" fill="none" xmlns="http://www.w3.org/2000/svg">
<mask id="mask0_12_324" style="mask-type:luminance" maskUnits="userSpaceOnUse" x="0" y="12" width="10" height="21">
<path d="M0 12.7147H9.12094V32.2798H0V12.7147Z" fill="white"/>
</mask>
<g mask="url(#mask0_12_324)">
<path d="M0 14.1587C0 13.791 0.202293 13.424 0.605892 13.1435C1.41309 12.5827 2.72257 12.5827 3.53075 13.1435C5.34843 14.4061 6.75757 15.8791 7.71673 17.5217C8.64234 19.1074 9.11206 20.7824 9.11206 22.5C9.11206 24.2183 8.64234 25.8933 7.71673 27.4789C6.75757 29.1216 5.34843 30.5945 3.53075 31.8571C2.72257 32.418 1.41309 32.418 0.605892 31.8571C-0.201306 31.2963 -0.201306 30.3869 0.605892 29.8268C3.42418 27.87 4.9764 25.2678 4.9764 22.5C4.9764 19.7328 3.42418 17.1307 0.605892 15.1739C0.202293 14.8934 0 14.5264 0 14.1587Z" fill="#FCFCFC"/>
</g>
<path d="M9.06958 37.1392C9.06958 36.7714 9.27187 36.4044 9.67547 36.124C20.4947 28.6116 20.4947 16.3891 9.67547 8.87669C8.86827 8.31584 8.86827 7.40721 9.67547 6.84636C10.4827 6.28551 11.7921 6.28551 12.5993 6.84636C15.6426 8.95917 17.9991 11.4232 19.6036 14.1704C21.1529 16.8234 21.9384 19.6256 21.9384 22.5C21.9384 25.375 21.1529 28.1772 19.6036 30.8303C17.9991 33.5775 15.6426 36.0415 12.5993 38.1543C11.7921 38.7152 10.4827 38.7152 9.67547 38.1543C9.27187 37.8739 9.06958 37.5069 9.06958 37.1392Z" fill="#FCFCFC"/>
<mask id="mask1_12_324" style="mask-type:luminance" maskUnits="userSpaceOnUse" x="18" y="0" width="18" height="45">
<path d="M18.2971 0H35.0253V45H18.2971V0Z" fill="white"/>
</mask>
<g mask="url(#mask1_12_324)">
<path d="M18.3238 43.5649C18.3238 43.1972 18.5261 42.8295 18.9297 42.549C34.8516 31.4942 34.8516 13.5065 18.9297 2.45097C18.1225 1.89081 18.1225 0.981488 18.9297 0.420638C19.7369 -0.140213 21.0464 -0.140213 21.8536 0.420638C26.1461 3.40084 29.4696 6.8766 31.7324 10.751C32.8198 12.6129 33.6507 14.5601 34.2023 16.5375C34.749 18.4964 35.0253 20.5027 35.0253 22.5C35.0253 24.498 34.749 26.5043 34.2023 28.4632C33.6507 30.4406 32.8198 32.3877 31.7324 34.2497C29.4696 38.1241 26.1461 41.5992 21.8536 44.58C21.0464 45.1409 19.7369 45.1409 18.9297 44.58C18.5261 44.2996 18.3238 43.9319 18.3238 43.5649Z" fill="#FCFCFC"/>
</g>
<mask id="mask2_12_324" style="mask-type:luminance" maskUnits="userSpaceOnUse" x="63" y="12" width="10" height="21">
<path d="M73 12.7147H63.8791V32.2798H73V12.7147Z" fill="white"/>
</mask>
<g mask="url(#mask2_12_324)">
<path d="M73 14.1587C73 13.791 72.7977 13.424 72.3941 13.1435C71.5869 12.5827 70.2774 12.5827 69.4692 13.1435C67.6516 14.4061 66.2424 15.8791 65.2833 17.5217C64.3577 19.1074 63.8879 20.7824 63.8879 22.5C63.8879 24.2183 64.3577 25.8933 65.2833 27.4789C66.2424 29.1216 67.6516 30.5945 69.4692 31.8571C70.2774 32.418 71.5869 32.418 72.3941 31.8571C73.2013 31.2963 73.2013 30.3869 72.3941 29.8268C69.5758 27.87 68.0236 25.2678 68.0236 22.5C68.0236 19.7328 69.5758 17.1307 72.3941 15.1739C72.7977 14.8934 73 14.5264 73 14.1587Z" fill="#FCFCFC"/>
</g>
<path d="M63.9304 37.1392C63.9304 36.7714 63.7281 36.4044 63.3245 36.124C52.5053 28.6116 52.5053 16.3891 63.3245 8.87669C64.1317 8.31584 64.1317 7.40721 63.3245 6.84636C62.5173 6.28551 61.2079 6.28551 60.4007 6.84636C57.3574 8.95917 55.0009 11.4232 53.3964 14.1704C51.8471 16.8234 51.0616 19.6256 51.0616 22.5C51.0616 25.375 51.8471 28.1772 53.3964 30.8303C55.0009 33.5775 57.3574 36.0415 60.4007 38.1543C61.2079 38.7152 62.5173 38.7152 63.3245 38.1543C63.7281 37.8739 63.9304 37.5069 63.9304 37.1392Z" fill="#FCFCFC"/>
<mask id="mask3_12_324" style="mask-type:luminance" maskUnits="userSpaceOnUse" x="37" y="0" width="18" height="45">
<path d="M54.7029 0H37.9747V45H54.7029V0Z" fill="white"/>
</mask>
<g mask="url(#mask3_12_324)">
<path d="M54.6762 43.5649C54.6762 43.1972 54.4739 42.8295 54.0703 42.549C38.1484 31.4942 38.1484 13.5065 54.0703 2.45097C54.8775 1.89081 54.8775 0.981488 54.0703 0.420638C53.2631 -0.140213 51.9536 -0.140213 51.1464 0.420638C46.8539 3.40084 43.5304 6.8766 41.2676 10.751C40.1802 12.6129 39.3493 14.5601 38.7977 16.5375C38.251 18.4964 37.9747 20.5027 37.9747 22.5C37.9747 24.498 38.251 26.5043 38.7977 28.4632C39.3493 30.4406 40.1802 32.3877 41.2676 34.2497C43.5304 38.1241 46.8539 41.5992 51.1464 44.58C51.9536 45.1409 53.2631 45.1409 54.0703 44.58C54.4739 44.2996 54.6762 43.9319 54.6762 43.5649Z" fill="#FCFCFC"/>
</g>
</svg>
