<svg width="115" height="81" viewBox="0 0 115 81" fill="none" xmlns="http://www.w3.org/2000/svg">
<mask id="mask0_82_2" style="mask-type:luminance" maskUnits="userSpaceOnUse" x="0" y="22" width="15" height="37">
<path d="M0 22.8864H14.3686V58.1037H0V22.8864Z" fill="white"/>
</mask>
<g mask="url(#mask0_82_2)">
<path d="M0 25.4859C0 24.824 0.318681 24.1633 0.954487 23.6586C2.2261 22.649 4.28897 22.649 5.56214 23.6586C8.4256 25.9313 10.6455 28.5825 12.1565 31.5393C13.6147 34.3935 14.3546 37.4085 14.3546 40.5002C14.3546 43.5931 13.6147 46.6081 12.1565 49.4622C10.6455 52.4191 8.4256 55.0703 5.56214 57.343C4.28897 58.3525 2.2261 58.3525 0.954487 57.343C-0.317126 56.3335 -0.317126 54.6967 0.954487 53.6884C5.39425 50.1662 7.83954 45.4823 7.83954 40.5002C7.83954 35.5193 5.39425 30.8354 0.954487 27.3132C0.318681 26.8084 0 26.1478 0 25.4859Z" fill="#2148B2"/>
</g>
<path d="M14.2876 66.8505C14.2876 66.1886 14.6063 65.5279 15.2421 65.0232C32.2861 51.5009 32.2861 29.5003 15.2421 15.978C13.9705 14.9685 13.9705 13.333 15.2421 12.3234C16.5137 11.3139 18.5766 11.3139 19.8482 12.3234C24.6424 16.1265 28.3546 20.5617 30.8823 25.5067C33.3229 30.2822 34.5603 35.3261 34.5603 40.5C34.5603 45.6751 33.3229 50.719 30.8823 55.4945C28.3546 60.4395 24.6424 64.8747 19.8482 68.6778C18.5766 69.6873 16.5137 69.6873 15.2421 68.6778C14.6063 68.173 14.2876 67.5124 14.2876 66.8505Z" fill="#2148B2"/>
<mask id="mask1_82_2" style="mask-type:luminance" maskUnits="userSpaceOnUse" x="28" y="0" width="28" height="81">
<path d="M28.8242 0H55.1768V81H28.8242V0Z" fill="white"/>
</mask>
<g mask="url(#mask1_82_2)">
<path d="M28.8662 78.4168C28.8662 77.7549 29.1849 77.093 29.8207 76.5883C54.9032 56.6896 54.9032 24.3116 29.8207 4.41175C28.5491 3.40345 28.5491 1.76668 29.8207 0.757148C31.0923 -0.252383 33.1552 -0.252383 34.4268 0.757148C41.189 6.12152 46.4247 12.3779 49.9893 19.3518C51.7024 22.7033 53.0113 26.2082 53.8803 29.7675C54.7415 33.2935 55.1768 36.9048 55.1768 40.5C55.1768 44.0965 54.7415 47.7078 53.8803 51.2337C53.0113 54.793 51.7024 58.2979 49.9893 61.6494C46.4247 68.6233 41.189 74.8785 34.4268 80.2441C33.1552 81.2536 31.0923 81.2536 29.8207 80.2441C29.1849 79.7393 28.8662 79.0774 28.8662 78.4168Z" fill="#2148B2"/>
</g>
<mask id="mask2_82_2" style="mask-type:luminance" maskUnits="userSpaceOnUse" x="100" y="22" width="15" height="37">
<path d="M115 22.8864H100.631V58.1037H115V22.8864Z" fill="white"/>
</mask>
<g mask="url(#mask2_82_2)">
<path d="M115 25.4859C115 24.824 114.681 24.1633 114.046 23.6586C112.774 22.649 110.711 22.649 109.438 23.6586C106.574 25.9313 104.355 28.5825 102.844 31.5393C101.385 34.3935 100.645 37.4085 100.645 40.5002C100.645 43.5931 101.385 46.6081 102.844 49.4622C104.355 52.4191 106.574 55.0703 109.438 57.343C110.711 58.3525 112.774 58.3525 114.046 57.343C115.317 56.3335 115.317 54.6967 114.046 53.6884C109.606 50.1662 107.16 45.4823 107.16 40.5002C107.16 35.5193 109.606 30.8354 114.046 27.3132C114.681 26.8084 115 26.1478 115 25.4859Z" fill="#B2212E"/>
</g>
<path d="M100.712 66.8505C100.712 66.1886 100.394 65.5279 99.7579 65.0232C82.7139 51.5009 82.7139 29.5003 99.7579 15.978C101.03 14.9685 101.03 13.333 99.7579 12.3234C98.4863 11.3139 96.4234 11.3139 95.1518 12.3234C90.3576 16.1265 86.6454 20.5617 84.1177 25.5067C81.6771 30.2822 80.4397 35.3261 80.4397 40.5C80.4397 45.6751 81.6771 50.719 84.1177 55.4945C86.6454 60.4395 90.3576 64.8747 95.1518 68.6778C96.4234 69.6873 98.4863 69.6873 99.7579 68.6778C100.394 68.173 100.712 67.5124 100.712 66.8505Z" fill="#B2212E"/>
<mask id="mask3_82_2" style="mask-type:luminance" maskUnits="userSpaceOnUse" x="59" y="0" width="28" height="81">
<path d="M86.1759 0H59.8234V81H86.1759V0Z" fill="white"/>
</mask>
<g mask="url(#mask3_82_2)">
<path d="M86.1339 78.4168C86.1339 77.7549 85.8152 77.093 85.1794 76.5883C60.0969 56.6896 60.0969 24.3116 85.1794 4.41175C86.451 3.40345 86.451 1.76668 85.1794 0.757148C83.9078 -0.252383 81.8449 -0.252383 80.5733 0.757148C73.8111 6.12152 68.5754 12.3779 65.0108 19.3518C63.2977 22.7033 61.9888 26.2082 61.1198 29.7675C60.2586 33.2935 59.8233 36.9048 59.8233 40.5C59.8233 44.0965 60.2586 47.7078 61.1198 51.2337C61.9888 54.793 63.2977 58.2979 65.0108 61.6494C68.5754 68.6233 73.8111 74.8785 80.5733 80.2441C81.8449 81.2536 83.9078 81.2536 85.1794 80.2441C85.8152 79.7393 86.1339 79.0774 86.1339 78.4168Z" fill="#B2212E"/>
</g>
</svg>
